<svg width="139" height="28" viewBox="0 0 139 28" fill="none" xmlns="http://www.w3.org/2000/svg">
    <path d="M42.8192 13.5274C43.4773 14.3111 43.8053 15.1881 43.8053 16.1622C43.7836 17.2812 43.4022 18.2177 42.6611 18.9717C41.9201 19.7256 41.021 20.1046 39.9618 20.1046H35.5669C34.7863 20.1046 34.3299 19.8923 34.1975 19.4677C34.1303 19.2772 34.0967 18.9875 34.0967 18.5947V9.28351C34.0967 9.01566 34.1046 8.81924 34.1224 8.69623C34.1382 8.57322 34.1915 8.42838 34.2805 8.25974C34.4366 7.95816 34.8713 7.80737 35.5847 7.80737H39.7958C40.8214 7.80737 41.679 8.1645 42.3687 8.88075C43.0919 9.6089 43.4555 10.4799 43.4555 11.4977C43.4555 12.2358 43.2441 12.9123 42.8212 13.5274H42.8192ZM40.8471 15.9936C40.8471 15.7257 40.8154 15.5134 40.7562 15.3567C40.6949 15.2 40.5921 15.0889 40.4479 15.0214C40.2246 14.9321 39.9124 14.8865 39.5112 14.8865C39.1101 14.8865 38.8097 14.8091 38.6081 14.6524C38.4085 14.4956 38.3078 14.1742 38.3078 13.6881C38.3078 13.202 38.4105 12.8806 38.616 12.7239C38.8216 12.5671 39.1654 12.4897 39.6436 12.4897C40.0882 12.4897 40.357 12.3727 40.4459 12.1366C40.4795 12.0136 40.4953 11.8132 40.4953 11.5334C40.4953 11.2537 40.4024 11.0592 40.2187 10.9461C40.0349 10.835 39.7582 10.7775 39.3907 10.7775H37.051V17.1364H39.7918C40.4933 17.1364 40.8451 16.7555 40.8451 15.9956L40.8471 15.9936Z" fill="white"/>
    <path d="M47.8508 17.1503H52.9966C53.2535 17.1503 53.4452 17.1582 53.5736 17.1761C53.7021 17.1939 53.8503 17.2455 54.0163 17.3348C54.3167 17.4915 54.4668 17.928 54.4668 18.6443C54.4668 19.428 54.2613 19.8863 53.8483 20.0192C53.6586 20.0867 53.3701 20.1204 52.9788 20.1204H46.3608C45.5803 20.1204 45.1238 19.9081 44.9914 19.4835C44.9242 19.305 44.8906 19.0193 44.8906 18.6284V9.29938C44.8906 8.72797 44.9954 8.34108 45.2088 8.13276C45.4202 7.92641 45.8214 7.82324 46.4122 7.82324H52.9966C53.2535 7.82324 53.4452 7.83118 53.5736 7.84904C53.7021 7.86491 53.8503 7.91848 54.0163 8.00776C54.3167 8.1645 54.4668 8.60099 54.4668 9.31724C54.4668 10.1009 54.2613 10.5593 53.8483 10.6922C53.6586 10.7596 53.3701 10.7934 52.9788 10.7934H47.8489V12.4878H51.1569C51.4138 12.4878 51.6054 12.4957 51.7339 12.5136C51.8623 12.5294 52.0105 12.583 52.1765 12.6723C52.4769 12.829 52.6271 13.2655 52.6271 13.9818C52.6271 14.7655 52.4156 15.2238 51.9928 15.3567C51.8031 15.4242 51.5145 15.4579 51.1233 15.4579H47.8489V17.1523L47.8508 17.1503Z" fill="white"/>
    <path d="M58.509 17.1503H63.6548C63.9117 17.1503 64.1034 17.1582 64.2318 17.1761C64.3603 17.1939 64.5085 17.2455 64.6745 17.3348C64.9749 17.4915 65.125 17.928 65.125 18.6443C65.125 19.428 64.9195 19.8863 64.5065 20.0192C64.3168 20.0867 64.0283 20.1204 63.637 20.1204H57.0191C56.2385 20.1204 55.782 19.9081 55.6496 19.4835C55.5824 19.305 55.5488 19.0193 55.5488 18.6284V9.29938C55.5488 8.72797 55.6536 8.34108 55.867 8.13276C56.0784 7.92641 56.4796 7.82324 57.0704 7.82324H63.6548C63.9117 7.82324 64.1034 7.83118 64.2318 7.84904C64.3603 7.86491 64.5085 7.91848 64.6745 8.00776C64.9749 8.1645 65.125 8.60099 65.125 9.31724C65.125 10.1009 64.9195 10.5593 64.5065 10.6922C64.3168 10.7596 64.0283 10.7934 63.637 10.7934H58.5071V12.4878H61.8151C62.072 12.4878 62.2636 12.4957 62.3921 12.5136C62.5205 12.5294 62.6687 12.583 62.8347 12.6723C63.1351 12.829 63.2853 13.2655 63.2853 13.9818C63.2853 14.7655 63.0738 15.2238 62.651 15.3567C62.4613 15.4242 62.1727 15.4579 61.7815 15.4579H58.5071V17.1523L58.509 17.1503Z" fill="white"/>
    <path d="M70.6252 18.3923C70.3347 18.0352 70.1904 17.7137 70.1904 17.428C70.1904 17.1423 70.4295 16.7654 70.9097 16.2951C71.1884 16.0273 71.4828 15.8924 71.795 15.8924C72.1073 15.8924 72.542 16.1721 73.0993 16.7316C73.2554 16.9221 73.4787 17.1027 73.7672 17.2773C74.0557 17.4499 74.3244 17.5372 74.5695 17.5372C75.605 17.5372 76.1227 17.1126 76.1227 16.2614C76.1227 16.0035 75.9804 15.7892 75.6959 15.6146C75.4113 15.442 75.0576 15.315 74.6347 15.2376C74.2118 15.1603 73.7553 15.0333 73.2653 14.8607C72.7752 14.6881 72.3187 14.4837 71.8958 14.2476C71.4729 14.0135 71.1192 13.6405 70.8346 13.1326C70.5501 12.6246 70.4078 12.0116 70.4078 11.2953C70.4078 10.3112 70.7734 9.45213 71.5026 8.72002C72.2318 7.9879 73.2257 7.62085 74.4845 7.62085C75.1524 7.62085 75.7631 7.70815 76.3144 7.88076C76.8657 8.05536 77.2471 8.22995 77.4586 8.40852L77.8755 8.72795C78.2213 9.05135 78.3933 9.32714 78.3933 9.54935C78.3933 9.77157 78.2589 10.0811 77.9921 10.4719C77.6127 11.0314 77.2234 11.3112 76.8222 11.3112C76.5891 11.3112 76.2986 11.2001 75.9528 10.9759C75.9192 10.9541 75.8559 10.8985 75.7611 10.8072C75.6662 10.718 75.5793 10.6446 75.5022 10.589C75.2671 10.4442 74.9706 10.3708 74.607 10.3708C74.2434 10.3708 73.945 10.458 73.7039 10.6307C73.4648 10.8053 73.3443 11.0453 73.3443 11.3529C73.3443 11.6604 73.4866 11.9084 73.7711 12.0989C74.0557 12.2893 74.4094 12.4183 74.8323 12.4858C75.2552 12.5532 75.7176 12.6564 76.2195 12.7953C76.7215 12.9361 77.1819 13.1048 77.6068 13.3072C78.0297 13.5075 78.3834 13.8587 78.6679 14.3547C78.9525 14.8527 79.0948 15.4658 79.0948 16.192C79.0948 16.9181 78.9505 17.559 78.66 18.1125C78.3695 18.6661 77.9921 19.0946 77.5238 19.3962C76.6207 19.9895 75.6583 20.2851 74.6327 20.2851C74.1091 20.2851 73.6131 20.2196 73.1447 20.0926C72.6764 19.9637 72.297 19.8049 72.0085 19.6145C71.4176 19.2573 71.0066 18.9101 70.7714 18.5748L70.6212 18.3903L70.6252 18.3923Z" fill="white"/>
    <path d="M80.148 7.80737H89.4377C89.7934 7.80737 90.0562 7.84904 90.2222 7.93237C90.3902 8.0157 90.5008 8.14863 90.5562 8.3272C90.6115 8.50576 90.6392 8.74186 90.6392 9.03154C90.6392 9.32121 90.6115 9.55533 90.5562 9.72794C90.5008 9.90254 90.406 10.0216 90.2716 10.089C90.0701 10.1902 89.7875 10.2398 89.4199 10.2398H86.2285V18.678C86.2285 18.9359 86.2206 19.1244 86.2028 19.2494C86.185 19.3724 86.1356 19.5153 86.0526 19.678C85.9696 19.8407 85.8214 19.9538 85.61 20.0212C85.3985 20.0887 85.1199 20.1224 84.7741 20.1224C84.4283 20.1224 84.1536 20.0887 83.9461 20.0212C83.7406 19.9538 83.5943 19.8387 83.5114 19.678C83.4284 19.5153 83.377 19.3704 83.3612 19.2415C83.3434 19.1125 83.3355 18.9201 83.3355 18.6621V10.2398H80.1263C79.7706 10.2398 79.5078 10.1982 79.3418 10.1148C79.1738 10.0315 79.0631 9.90055 79.0078 9.72C78.9525 9.54144 78.9248 9.30732 78.9248 9.01566C78.9248 8.72401 78.9525 8.49386 79.0078 8.31926C79.0631 8.14665 79.158 8.02562 79.2924 7.95816C79.4919 7.85697 79.7765 7.80737 80.1441 7.80737H80.148Z" fill="white"/>
    <path d="M96.1232 8.69626L100.635 18.057C100.824 18.438 100.919 18.7217 100.919 18.9122C100.919 19.3149 100.597 19.678 99.9509 20.0034C99.5715 20.1939 99.2751 20.2891 99.0577 20.2891C98.8403 20.2891 98.6625 20.2395 98.5222 20.1383C98.3819 20.0371 98.2831 19.932 98.2218 19.8189C98.1605 19.7078 98.0736 19.5391 97.9629 19.3149L97.0934 17.5035H92.4654L91.5959 19.3149C91.4852 19.5391 91.3983 19.7018 91.337 19.801C91.2758 19.9022 91.175 20.0054 91.0367 20.1105C90.8964 20.2177 90.7185 20.2693 90.5011 20.2693C90.2838 20.2693 89.9854 20.174 89.6079 19.9836C88.9618 19.6701 88.6396 19.3129 88.6396 18.9102C88.6396 18.7197 88.7345 18.434 88.9242 18.055L93.4357 8.67642C93.5582 8.41849 93.7439 8.21215 93.9949 8.05541C94.2459 7.89867 94.5107 7.82129 94.7893 7.82129C95.392 7.82129 95.8366 8.11295 96.1271 8.69427L96.1232 8.69626ZM94.7695 12.7219L93.6669 15.0214H95.89L94.7695 12.7219Z" fill="white"/>
    <path d="M99.5162 7.80737H108.806C109.162 7.80737 109.424 7.84904 109.59 7.93237C109.758 8.0157 109.869 8.14863 109.924 8.3272C109.98 8.50576 110.007 8.74186 110.007 9.03154C110.007 9.32121 109.98 9.55533 109.924 9.72794C109.869 9.90254 109.774 10.0216 109.64 10.089C109.438 10.1902 109.156 10.2398 108.788 10.2398H105.597V18.678C105.597 18.9359 105.589 19.1244 105.571 19.2494C105.553 19.3724 105.504 19.5153 105.421 19.678C105.338 19.8407 105.19 19.9538 104.978 20.0212C104.767 20.0887 104.488 20.1224 104.142 20.1224C103.796 20.1224 103.522 20.0887 103.314 20.0212C103.109 19.9538 102.963 19.8387 102.88 19.678C102.797 19.5153 102.745 19.3704 102.729 19.2415C102.712 19.1125 102.704 18.9201 102.704 18.6621V10.2398H99.4944C99.1387 10.2398 98.8759 10.1982 98.7099 10.1148C98.542 10.0315 98.4313 9.90055 98.376 9.72C98.3206 9.54144 98.293 9.30732 98.293 9.01566C98.293 8.72401 98.3206 8.49386 98.376 8.31926C98.4313 8.14665 98.5262 8.02562 98.6605 7.95816C98.8601 7.85697 99.1447 7.80737 99.5122 7.80737H99.5162Z" fill="white"/>
    <path d="M110.928 9.29938C110.928 9.04145 110.936 8.849 110.953 8.72004C110.969 8.59107 111.023 8.44425 111.112 8.27561C111.268 7.97403 111.702 7.82324 112.416 7.82324C113.196 7.82324 113.659 8.02958 113.803 8.44425C113.858 8.63472 113.886 8.92439 113.886 9.31724V18.6463C113.886 18.9141 113.878 19.1105 113.86 19.2335C113.844 19.3566 113.791 19.5014 113.702 19.67C113.546 19.9716 113.111 20.1224 112.398 20.1224C111.617 20.1224 111.161 19.9101 111.029 19.4855C110.961 19.307 110.928 19.0213 110.928 18.6304V9.29938Z" fill="white"/>
    <path d="M120.97 7.67236C122.618 7.67236 124.051 8.27155 125.264 9.46793C126.478 10.6643 127.086 12.1504 127.086 13.9221C127.086 15.6939 126.507 17.2058 125.349 18.4517C124.191 19.6997 122.764 20.3227 121.071 20.3227C119.377 20.3227 117.937 19.7076 116.751 18.4775C115.565 17.2474 114.973 15.7832 114.973 14.0809C114.973 13.1523 115.141 12.2833 115.475 11.4718C115.809 10.6604 116.255 9.9818 116.812 9.4342C117.37 8.88661 118.01 8.45606 118.733 8.14258C119.456 7.8291 120.203 7.67236 120.972 7.67236H120.97ZM117.929 13.9975C117.929 14.9935 118.249 15.801 118.889 16.422C119.53 17.0431 120.245 17.3526 121.037 17.3526C121.83 17.3526 122.541 17.051 123.175 16.4459C123.81 15.8427 124.128 15.0312 124.128 14.0134C124.128 12.9956 123.808 12.1801 123.168 11.5631C122.527 10.948 121.812 10.6405 121.02 10.6405C120.227 10.6405 119.516 10.95 118.881 11.571C118.247 12.192 117.929 12.9996 117.929 13.9955V13.9975Z" fill="white"/>
    <path d="M136.083 8.33513C136.19 8.14069 136.348 8.00776 136.559 7.9403C136.771 7.87284 137.036 7.83911 137.354 7.83911C137.672 7.83911 137.927 7.86689 138.123 7.92244C138.318 7.97799 138.462 8.04545 138.557 8.12283C138.652 8.20021 138.721 8.31925 138.767 8.47599C138.834 8.65456 138.868 8.94026 138.868 9.33112V18.6423C138.868 18.9101 138.86 19.1066 138.842 19.2296C138.824 19.3526 138.773 19.4974 138.684 19.6661C138.528 19.9676 138.093 20.1184 137.38 20.1184C136.945 20.1184 136.644 20.0847 136.478 20.0172C136.31 19.9498 136.172 19.8446 136.059 19.6978C133.554 16.3428 131.904 14.1504 131.113 13.1207V18.6403C131.113 18.9082 131.105 19.1046 131.088 19.2276C131.072 19.3506 131.018 19.4954 130.93 19.6641C130.773 19.9657 130.339 20.1164 129.625 20.1164C128.912 20.1164 128.511 19.9657 128.355 19.6641C128.266 19.4974 128.212 19.3447 128.197 19.2117C128.181 19.0768 128.173 18.8824 128.173 18.6244V9.26565C128.173 8.84106 128.226 8.52956 128.331 8.33513C128.438 8.14069 128.596 8.00776 128.807 7.9403C129.019 7.87284 129.291 7.83911 129.625 7.83911C129.959 7.83911 130.224 7.87086 130.42 7.93038C130.613 7.99188 130.752 8.06133 130.829 8.14069C130.872 8.17442 131.001 8.31925 131.214 8.57718C133.564 11.7874 135.135 13.9064 135.927 14.9361V9.26565C135.927 8.84106 135.98 8.52956 136.085 8.33513H136.083Z" fill="white"/>
    <path d="M12.2627 14.8608H4.77322C4.45309 14.8608 4.15667 14.6882 3.99463 14.4104L0.251884 7.89873C0.0918198 7.61898 0.0918198 7.27574 0.251884 6.99797L3.99661 0.484316C4.15667 0.204564 4.45309 0.0339355 4.7752 0.0339355H12.2627C12.5828 0.0339355 12.8792 0.206548 13.0413 0.484316L16.786 6.99599C16.946 7.27574 16.946 7.61898 16.786 7.89675L13.0413 14.4084C12.8812 14.6882 12.5848 14.8588 12.2627 14.8588V14.8608ZM5.29294 13.0573H11.7449L14.9699 7.44835L11.7449 1.83744H5.29294L2.06595 7.44637L5.29096 13.0553L5.29294 13.0573Z" fill="white"/>
    <path d="M23.4971 21.3725H16.0076C15.6875 21.3725 15.3911 21.1999 15.229 20.9221L11.4843 14.4105C11.3242 14.1307 11.3242 13.7875 11.4843 13.5077L15.229 6.99604C15.3891 6.71628 15.6855 6.54565 16.0076 6.54565H23.4971C23.8172 6.54565 24.1136 6.71827 24.2757 6.99604L28.0204 13.5077C28.1804 13.7875 28.1804 14.1307 28.0204 14.4105L24.2757 20.9221C24.1156 21.2019 23.8192 21.3725 23.4971 21.3725ZM16.5273 19.569H22.9793L26.2043 13.9601L22.9793 8.35114H16.5273L13.3003 13.9601L16.5254 19.569H16.5273Z" fill="white"/>
    <path d="M12.2627 27.8842H4.77322C4.45309 27.8842 4.15667 27.7116 3.99463 27.4338L0.251884 20.9221C0.0918198 20.6424 0.0918198 20.2991 0.251884 20.0214L3.99661 13.5097C4.15667 13.23 4.45309 13.0593 4.7752 13.0593H12.2627C12.5828 13.0593 12.8792 13.2319 13.0413 13.5097L16.786 20.0214C16.946 20.3011 16.946 20.6444 16.786 20.9221L13.0413 27.4338C12.8812 27.7136 12.5848 27.8842 12.2627 27.8842ZM5.29294 26.0807H11.7449L14.9699 20.4718L11.7449 14.8628H5.29294L2.06793 20.4718L5.29294 26.0807Z" fill="white"/>
    <path d="M42.8192 13.5274C43.4773 14.3111 43.8053 15.1881 43.8053 16.1622C43.7836 17.2812 43.4022 18.2177 42.6611 18.9717C41.9201 19.7256 41.021 20.1046 39.9618 20.1046H35.5669C34.7863 20.1046 34.3299 19.8923 34.1975 19.4677C34.1303 19.2772 34.0967 18.9875 34.0967 18.5947V9.28351C34.0967 9.01566 34.1046 8.81924 34.1224 8.69623C34.1382 8.57322 34.1915 8.42838 34.2805 8.25974C34.4366 7.95816 34.8713 7.80737 35.5847 7.80737H39.7958C40.8214 7.80737 41.679 8.1645 42.3687 8.88075C43.0919 9.6089 43.4555 10.4799 43.4555 11.4977C43.4555 12.2358 43.2441 12.9123 42.8212 13.5274H42.8192ZM40.8471 15.9936C40.8471 15.7257 40.8154 15.5134 40.7562 15.3567C40.6949 15.2 40.5921 15.0889 40.4479 15.0214C40.2246 14.9321 39.9124 14.8865 39.5112 14.8865C39.1101 14.8865 38.8097 14.8091 38.6081 14.6524C38.4085 14.4956 38.3078 14.1742 38.3078 13.6881C38.3078 13.202 38.4105 12.8806 38.616 12.7239C38.8216 12.5671 39.1654 12.4897 39.6436 12.4897C40.0882 12.4897 40.357 12.3727 40.4459 12.1366C40.4795 12.0136 40.4953 11.8132 40.4953 11.5334C40.4953 11.2537 40.4024 11.0592 40.2187 10.9461C40.0349 10.835 39.7582 10.7775 39.3907 10.7775H37.051V17.1364H39.7918C40.4933 17.1364 40.8451 16.7555 40.8451 15.9956L40.8471 15.9936Z" fill="white"/>
    <path d="M47.8508 17.1503H52.9966C53.2535 17.1503 53.4452 17.1582 53.5736 17.1761C53.7021 17.1939 53.8503 17.2455 54.0163 17.3348C54.3167 17.4915 54.4668 17.928 54.4668 18.6443C54.4668 19.428 54.2613 19.8863 53.8483 20.0192C53.6586 20.0867 53.3701 20.1204 52.9788 20.1204H46.3608C45.5803 20.1204 45.1238 19.9081 44.9914 19.4835C44.9242 19.305 44.8906 19.0193 44.8906 18.6284V9.29938C44.8906 8.72797 44.9954 8.34108 45.2088 8.13276C45.4202 7.92641 45.8214 7.82324 46.4122 7.82324H52.9966C53.2535 7.82324 53.4452 7.83118 53.5736 7.84904C53.7021 7.86491 53.8503 7.91848 54.0163 8.00776C54.3167 8.1645 54.4668 8.60099 54.4668 9.31724C54.4668 10.1009 54.2613 10.5593 53.8483 10.6922C53.6586 10.7596 53.3701 10.7934 52.9788 10.7934H47.8489V12.4878H51.1569C51.4138 12.4878 51.6054 12.4957 51.7339 12.5136C51.8623 12.5294 52.0105 12.583 52.1765 12.6723C52.4769 12.829 52.6271 13.2655 52.6271 13.9818C52.6271 14.7655 52.4156 15.2238 51.9928 15.3567C51.8031 15.4242 51.5145 15.4579 51.1233 15.4579H47.8489V17.1523L47.8508 17.1503Z" fill="white"/>
    <path d="M58.509 17.1503H63.6548C63.9117 17.1503 64.1034 17.1582 64.2318 17.1761C64.3603 17.1939 64.5085 17.2455 64.6745 17.3348C64.9749 17.4915 65.125 17.928 65.125 18.6443C65.125 19.428 64.9195 19.8863 64.5065 20.0192C64.3168 20.0867 64.0283 20.1204 63.637 20.1204H57.0191C56.2385 20.1204 55.782 19.9081 55.6496 19.4835C55.5824 19.305 55.5488 19.0193 55.5488 18.6284V9.29938C55.5488 8.72797 55.6536 8.34108 55.867 8.13276C56.0784 7.92641 56.4796 7.82324 57.0704 7.82324H63.6548C63.9117 7.82324 64.1034 7.83118 64.2318 7.84904C64.3603 7.86491 64.5085 7.91848 64.6745 8.00776C64.9749 8.1645 65.125 8.60099 65.125 9.31724C65.125 10.1009 64.9195 10.5593 64.5065 10.6922C64.3168 10.7596 64.0283 10.7934 63.637 10.7934H58.5071V12.4878H61.8151C62.072 12.4878 62.2636 12.4957 62.3921 12.5136C62.5205 12.5294 62.6687 12.583 62.8347 12.6723C63.1351 12.829 63.2853 13.2655 63.2853 13.9818C63.2853 14.7655 63.0738 15.2238 62.651 15.3567C62.4613 15.4242 62.1727 15.4579 61.7815 15.4579H58.5071V17.1523L58.509 17.1503Z" fill="white"/>
    <path d="M70.6252 18.3923C70.3347 18.0352 70.1904 17.7137 70.1904 17.428C70.1904 17.1423 70.4295 16.7654 70.9097 16.2951C71.1884 16.0273 71.4828 15.8924 71.795 15.8924C72.1073 15.8924 72.542 16.1721 73.0993 16.7316C73.2554 16.9221 73.4787 17.1027 73.7672 17.2773C74.0557 17.4499 74.3244 17.5372 74.5695 17.5372C75.605 17.5372 76.1227 17.1126 76.1227 16.2614C76.1227 16.0035 75.9804 15.7892 75.6959 15.6146C75.4113 15.442 75.0576 15.315 74.6347 15.2376C74.2118 15.1603 73.7553 15.0333 73.2653 14.8607C72.7752 14.6881 72.3187 14.4837 71.8958 14.2476C71.4729 14.0135 71.1192 13.6405 70.8346 13.1326C70.5501 12.6246 70.4078 12.0116 70.4078 11.2953C70.4078 10.3112 70.7734 9.45213 71.5026 8.72002C72.2318 7.9879 73.2257 7.62085 74.4845 7.62085C75.1524 7.62085 75.7631 7.70815 76.3144 7.88076C76.8657 8.05536 77.2471 8.22995 77.4586 8.40852L77.8755 8.72795C78.2213 9.05135 78.3933 9.32714 78.3933 9.54935C78.3933 9.77157 78.2589 10.0811 77.9921 10.4719C77.6127 11.0314 77.2234 11.3112 76.8222 11.3112C76.5891 11.3112 76.2986 11.2001 75.9528 10.9759C75.9192 10.9541 75.8559 10.8985 75.7611 10.8072C75.6662 10.718 75.5793 10.6446 75.5022 10.589C75.2671 10.4442 74.9706 10.3708 74.607 10.3708C74.2434 10.3708 73.945 10.458 73.7039 10.6307C73.4648 10.8053 73.3443 11.0453 73.3443 11.3529C73.3443 11.6604 73.4866 11.9084 73.7711 12.0989C74.0557 12.2893 74.4094 12.4183 74.8323 12.4858C75.2552 12.5532 75.7176 12.6564 76.2195 12.7953C76.7215 12.9361 77.1819 13.1048 77.6068 13.3072C78.0297 13.5075 78.3834 13.8587 78.6679 14.3547C78.9525 14.8527 79.0948 15.4658 79.0948 16.192C79.0948 16.9181 78.9505 17.559 78.66 18.1125C78.3695 18.6661 77.9921 19.0946 77.5238 19.3962C76.6207 19.9895 75.6583 20.2851 74.6327 20.2851C74.1091 20.2851 73.6131 20.2196 73.1447 20.0926C72.6764 19.9637 72.297 19.8049 72.0085 19.6145C71.4176 19.2573 71.0066 18.9101 70.7714 18.5748L70.6212 18.3903L70.6252 18.3923Z" fill="white"/>
    <path d="M80.148 7.80737H89.4377C89.7934 7.80737 90.0562 7.84904 90.2222 7.93237C90.3902 8.0157 90.5008 8.14863 90.5562 8.3272C90.6115 8.50576 90.6392 8.74186 90.6392 9.03154C90.6392 9.32121 90.6115 9.55533 90.5562 9.72794C90.5008 9.90254 90.406 10.0216 90.2716 10.089C90.0701 10.1902 89.7875 10.2398 89.4199 10.2398H86.2285V18.678C86.2285 18.9359 86.2206 19.1244 86.2028 19.2494C86.185 19.3724 86.1356 19.5153 86.0526 19.678C85.9696 19.8407 85.8214 19.9538 85.61 20.0212C85.3985 20.0887 85.1199 20.1224 84.7741 20.1224C84.4283 20.1224 84.1536 20.0887 83.9461 20.0212C83.7406 19.9538 83.5943 19.8387 83.5114 19.678C83.4284 19.5153 83.377 19.3704 83.3612 19.2415C83.3434 19.1125 83.3355 18.9201 83.3355 18.6621V10.2398H80.1263C79.7706 10.2398 79.5078 10.1982 79.3418 10.1148C79.1738 10.0315 79.0631 9.90055 79.0078 9.72C78.9525 9.54144 78.9248 9.30732 78.9248 9.01566C78.9248 8.72401 78.9525 8.49386 79.0078 8.31926C79.0631 8.14665 79.158 8.02562 79.2924 7.95816C79.4919 7.85697 79.7765 7.80737 80.1441 7.80737H80.148Z" fill="white"/>
    <path d="M96.1232 8.69626L100.635 18.057C100.824 18.438 100.919 18.7217 100.919 18.9122C100.919 19.3149 100.597 19.678 99.9509 20.0034C99.5715 20.1939 99.2751 20.2891 99.0577 20.2891C98.8403 20.2891 98.6625 20.2395 98.5222 20.1383C98.3819 20.0371 98.2831 19.932 98.2218 19.8189C98.1605 19.7078 98.0736 19.5391 97.9629 19.3149L97.0934 17.5035H92.4654L91.5959 19.3149C91.4852 19.5391 91.3983 19.7018 91.337 19.801C91.2758 19.9022 91.175 20.0054 91.0367 20.1105C90.8964 20.2177 90.7185 20.2693 90.5011 20.2693C90.2838 20.2693 89.9854 20.174 89.6079 19.9836C88.9618 19.6701 88.6396 19.3129 88.6396 18.9102C88.6396 18.7197 88.7345 18.434 88.9242 18.055L93.4357 8.67642C93.5582 8.41849 93.7439 8.21215 93.9949 8.05541C94.2459 7.89867 94.5107 7.82129 94.7893 7.82129C95.392 7.82129 95.8366 8.11295 96.1271 8.69427L96.1232 8.69626ZM94.7695 12.7219L93.6669 15.0214H95.89L94.7695 12.7219Z" fill="white"/>
    <path d="M99.5162 7.80737H108.806C109.162 7.80737 109.424 7.84904 109.59 7.93237C109.758 8.0157 109.869 8.14863 109.924 8.3272C109.98 8.50576 110.007 8.74186 110.007 9.03154C110.007 9.32121 109.98 9.55533 109.924 9.72794C109.869 9.90254 109.774 10.0216 109.64 10.089C109.438 10.1902 109.156 10.2398 108.788 10.2398H105.597V18.678C105.597 18.9359 105.589 19.1244 105.571 19.2494C105.553 19.3724 105.504 19.5153 105.421 19.678C105.338 19.8407 105.19 19.9538 104.978 20.0212C104.767 20.0887 104.488 20.1224 104.142 20.1224C103.796 20.1224 103.522 20.0887 103.314 20.0212C103.109 19.9538 102.963 19.8387 102.88 19.678C102.797 19.5153 102.745 19.3704 102.729 19.2415C102.712 19.1125 102.704 18.9201 102.704 18.6621V10.2398H99.4944C99.1387 10.2398 98.8759 10.1982 98.7099 10.1148C98.542 10.0315 98.4313 9.90055 98.376 9.72C98.3206 9.54144 98.293 9.30732 98.293 9.01566C98.293 8.72401 98.3206 8.49386 98.376 8.31926C98.4313 8.14665 98.5262 8.02562 98.6605 7.95816C98.8601 7.85697 99.1447 7.80737 99.5122 7.80737H99.5162Z" fill="white"/>
    <path d="M110.928 9.29938C110.928 9.04145 110.936 8.849 110.953 8.72004C110.969 8.59107 111.023 8.44425 111.112 8.27561C111.268 7.97403 111.702 7.82324 112.416 7.82324C113.196 7.82324 113.659 8.02958 113.803 8.44425C113.858 8.63472 113.886 8.92439 113.886 9.31724V18.6463C113.886 18.9141 113.878 19.1105 113.86 19.2335C113.844 19.3566 113.791 19.5014 113.702 19.67C113.546 19.9716 113.111 20.1224 112.398 20.1224C111.617 20.1224 111.161 19.9101 111.029 19.4855C110.961 19.307 110.928 19.0213 110.928 18.6304V9.29938Z" fill="white"/>
    <path d="M120.97 7.67236C122.618 7.67236 124.051 8.27155 125.264 9.46793C126.478 10.6643 127.086 12.1504 127.086 13.9221C127.086 15.6939 126.507 17.2058 125.349 18.4517C124.191 19.6997 122.764 20.3227 121.071 20.3227C119.377 20.3227 117.937 19.7076 116.751 18.4775C115.565 17.2474 114.973 15.7832 114.973 14.0809C114.973 13.1523 115.141 12.2833 115.475 11.4718C115.809 10.6604 116.255 9.9818 116.812 9.4342C117.37 8.88661 118.01 8.45606 118.733 8.14258C119.456 7.8291 120.203 7.67236 120.972 7.67236H120.97ZM117.929 13.9975C117.929 14.9935 118.249 15.801 118.889 16.422C119.53 17.0431 120.245 17.3526 121.037 17.3526C121.83 17.3526 122.541 17.051 123.175 16.4459C123.81 15.8427 124.128 15.0312 124.128 14.0134C124.128 12.9956 123.808 12.1801 123.168 11.5631C122.527 10.948 121.812 10.6405 121.02 10.6405C120.227 10.6405 119.516 10.95 118.881 11.571C118.247 12.192 117.929 12.9996 117.929 13.9955V13.9975Z" fill="white"/>
    <path d="M136.083 8.33513C136.19 8.14069 136.348 8.00776 136.559 7.9403C136.771 7.87284 137.036 7.83911 137.354 7.83911C137.672 7.83911 137.927 7.86689 138.123 7.92244C138.318 7.97799 138.462 8.04545 138.557 8.12283C138.652 8.20021 138.721 8.31925 138.767 8.47599C138.834 8.65456 138.868 8.94026 138.868 9.33112V18.6423C138.868 18.9101 138.86 19.1066 138.842 19.2296C138.824 19.3526 138.773 19.4974 138.684 19.6661C138.528 19.9676 138.093 20.1184 137.38 20.1184C136.945 20.1184 136.644 20.0847 136.478 20.0172C136.31 19.9498 136.172 19.8446 136.059 19.6978C133.554 16.3428 131.904 14.1504 131.113 13.1207V18.6403C131.113 18.9082 131.105 19.1046 131.088 19.2276C131.072 19.3506 131.018 19.4954 130.93 19.6641C130.773 19.9657 130.339 20.1164 129.625 20.1164C128.912 20.1164 128.511 19.9657 128.355 19.6641C128.266 19.4974 128.212 19.3447 128.197 19.2117C128.181 19.0768 128.173 18.8824 128.173 18.6244V9.26565C128.173 8.84106 128.226 8.52956 128.331 8.33513C128.438 8.14069 128.596 8.00776 128.807 7.9403C129.019 7.87284 129.291 7.83911 129.625 7.83911C129.959 7.83911 130.224 7.87086 130.42 7.93038C130.613 7.99188 130.752 8.06133 130.829 8.14069C130.872 8.17442 131.001 8.31925 131.214 8.57718C133.564 11.7874 135.135 13.9064 135.927 14.9361V9.26565C135.927 8.84106 135.98 8.52956 136.085 8.33513H136.083Z" fill="white"/>
    <path d="M12.2627 14.8608H4.77322C4.45309 14.8608 4.15667 14.6882 3.99463 14.4104L0.251884 7.89873C0.0918198 7.61898 0.0918198 7.27574 0.251884 6.99797L3.99661 0.484316C4.15667 0.204564 4.45309 0.0339355 4.7752 0.0339355H12.2627C12.5828 0.0339355 12.8792 0.206548 13.0413 0.484316L16.786 6.99599C16.946 7.27574 16.946 7.61898 16.786 7.89675L13.0413 14.4084C12.8812 14.6882 12.5848 14.8588 12.2627 14.8588V14.8608ZM5.29294 13.0573H11.7449L14.9699 7.44835L11.7449 1.83744H5.29294L2.06595 7.44637L5.29096 13.0553L5.29294 13.0573Z" fill="white"/>
    <path d="M23.4971 21.3725H16.0076C15.6875 21.3725 15.3911 21.1999 15.229 20.9221L11.4843 14.4105C11.3242 14.1307 11.3242 13.7875 11.4843 13.5077L15.229 6.99604C15.3891 6.71628 15.6855 6.54565 16.0076 6.54565H23.4971C23.8172 6.54565 24.1136 6.71827 24.2757 6.99604L28.0204 13.5077C28.1804 13.7875 28.1804 14.1307 28.0204 14.4105L24.2757 20.9221C24.1156 21.2019 23.8192 21.3725 23.4971 21.3725ZM16.5273 19.569H22.9793L26.2043 13.9601L22.9793 8.35114H16.5273L13.3003 13.9601L16.5254 19.569H16.5273Z" fill="white"/>
    <path d="M12.2627 27.8842H4.77322C4.45309 27.8842 4.15667 27.7116 3.99463 27.4338L0.251884 20.9221C0.0918198 20.6424 0.0918198 20.2991 0.251884 20.0214L3.99661 13.5097C4.15667 13.23 4.45309 13.0593 4.7752 13.0593H12.2627C12.5828 13.0593 12.8792 13.2319 13.0413 13.5097L16.786 20.0214C16.946 20.3011 16.946 20.6444 16.786 20.9221L13.0413 27.4338C12.8812 27.7136 12.5848 27.8842 12.2627 27.8842ZM5.29294 26.0807H11.7449L14.9699 20.4718L11.7449 14.8628H5.29294L2.06793 20.4718L5.29294 26.0807Z" fill="white"/>
</svg>
