<svg width="210" height="26" viewBox="0 0 210 26" fill="none" xmlns="http://www.w3.org/2000/svg">
<g id="_&#236;&#154;&#180;&#235;&#147;&#156;_&#235;&#133;&#184;&#235;&#158;&#145;">
<g id="Group">
<path id="Vector" d="M17.6386 12.0551C18.9547 13.6225 19.6108 15.3764 19.6108 17.3247C19.5673 19.5627 18.8045 21.4357 17.3224 22.9436C15.8404 24.4514 14.0421 25.2093 11.9237 25.2093H3.13399C1.57287 25.2093 0.659902 24.7848 0.395103 23.9356C0.260728 23.5546 0.193542 22.9753 0.193542 22.1896V3.56726C0.193542 3.03157 0.209347 2.63873 0.244917 2.3927C0.276535 2.14668 0.383246 1.85701 0.561096 1.51972C0.873321 0.916566 1.74281 0.61499 3.16956 0.61499H11.5917C13.6429 0.61499 15.3582 1.32925 16.7375 2.76174C18.184 4.21804 18.9112 5.96004 18.9112 7.99568C18.9112 9.47182 18.4883 10.8249 17.6426 12.0551H17.6386ZM13.6943 16.9874C13.6943 16.4517 13.6311 16.0271 13.5125 15.7137C13.39 15.4002 13.1845 15.178 12.896 15.043C12.4494 14.8645 11.8249 14.7732 11.0226 14.7732C10.2203 14.7732 9.61958 14.6185 9.21645 14.305C8.81728 13.9915 8.61571 13.3487 8.61571 12.3765C8.61571 11.4043 8.82123 10.7615 9.23226 10.448C9.64329 10.1345 10.331 9.97973 11.2874 9.97973C12.1767 9.97973 12.7142 9.74562 12.892 9.27341C12.9592 9.02739 12.9908 8.62661 12.9908 8.0671C12.9908 7.5076 12.8051 7.11872 12.4375 6.89254C12.0699 6.67033 11.5166 6.55525 10.7815 6.55525H6.1021V19.2731H11.5838C12.9869 19.2731 13.6904 18.5112 13.6904 16.9914L13.6943 16.9874Z" fill="#FFC53E"/>
<path id="Vector_2" d="M27.701 19.3008H37.9925C38.5063 19.3008 38.8897 19.3167 39.1466 19.3524C39.4035 19.3881 39.6999 19.4913 40.0319 19.6699C40.6326 19.9833 40.933 20.8563 40.933 22.2888C40.933 23.8562 40.5219 24.7728 39.6959 25.0387C39.3165 25.1736 38.7395 25.2411 37.957 25.2411H24.721C23.1599 25.2411 22.2469 24.8165 21.9821 23.9673C21.8477 23.6102 21.7805 23.0388 21.7805 22.2571V3.599C21.7805 2.45619 21.99 1.68241 22.4169 1.26575C22.8397 0.853071 23.642 0.646729 24.8238 0.646729H37.9925C38.5063 0.646729 38.8897 0.662601 39.1466 0.698314C39.4035 0.730059 39.6999 0.837198 40.0319 1.01576C40.6326 1.32924 40.933 2.20223 40.933 3.63472C40.933 5.20212 40.5219 6.11876 39.6959 6.38462C39.3165 6.51953 38.7395 6.58699 37.957 6.58699H27.697V9.97576H34.313C34.8268 9.97576 35.2102 9.99163 35.4671 10.0273C35.724 10.0591 36.0204 10.1662 36.3524 10.3448C36.9531 10.6583 37.2535 11.5313 37.2535 12.9637C37.2535 14.5312 36.8306 15.4478 35.9848 15.7136C35.6054 15.8486 35.0284 15.916 34.2458 15.916H27.697V19.3048L27.701 19.3008Z" fill="#FFC53E"/>
<path id="Vector_3" d="M49.0192 19.3008H59.3107C59.8245 19.3008 60.2079 19.3167 60.4648 19.3524C60.7217 19.3881 61.0181 19.4913 61.3501 19.6699C61.9508 19.9833 62.2512 20.8563 62.2512 22.2888C62.2512 23.8562 61.8402 24.7728 61.0141 25.0387C60.6347 25.1736 60.0577 25.2411 59.2752 25.2411H46.0392C44.4781 25.2411 43.5651 24.8165 43.3003 23.9673C43.1659 23.6102 43.0988 23.0388 43.0988 22.2571V3.599C43.0988 2.45619 43.3082 1.68241 43.7351 1.26575C44.1579 0.853071 44.9603 0.646729 46.142 0.646729H59.3107C59.8245 0.646729 60.2079 0.662601 60.4648 0.698314C60.7217 0.730059 61.0181 0.837198 61.3501 1.01576C61.9508 1.32924 62.2512 2.20223 62.2512 3.63472C62.2512 5.20212 61.8402 6.11876 61.0141 6.38462C60.6347 6.51953 60.0577 6.58699 59.2752 6.58699H49.0152V9.97576H55.6312C56.145 9.97576 56.5284 9.99163 56.7853 10.0273C57.0422 10.0591 57.3386 10.1662 57.6706 10.3448C58.2713 10.6583 58.5717 11.5313 58.5717 12.9637C58.5717 14.5312 58.1488 15.4478 57.303 15.7136C56.9236 15.8486 56.3466 15.916 55.564 15.916H49.0152V19.3048L49.0192 19.3008Z" fill="#FFC53E"/>
<path id="Vector_4" d="M73.2503 21.7848C72.6693 21.0706 72.3808 20.4277 72.3808 19.8563C72.3808 19.2849 72.859 18.531 73.8194 17.5905C74.3767 17.0548 74.9655 16.785 75.59 16.785C76.2144 16.785 77.0839 17.3445 78.1985 18.4635C78.5107 18.8445 78.9573 19.2056 79.5343 19.5547C80.1113 19.9 80.6488 20.0746 81.1389 20.0746C83.2099 20.0746 84.2453 19.2254 84.2453 17.5231C84.2453 17.0072 83.9608 16.5787 83.3917 16.2295C82.8226 15.8842 82.1151 15.6303 81.2693 15.4755C80.4236 15.3208 79.5106 15.0668 78.5304 14.7216C77.5503 14.3764 76.6373 13.9676 75.7916 13.4954C74.9458 13.0272 74.2383 12.2812 73.6692 11.2654C73.1001 10.2495 72.8155 9.02337 72.8155 7.59089C72.8155 5.6227 73.5467 3.90451 75.0051 2.44028C76.4634 0.976043 78.4514 0.241943 80.969 0.241943C82.3048 0.241943 83.526 0.416539 84.6287 0.761765C85.7314 1.11096 86.4942 1.46015 86.917 1.81728L87.751 2.45615C88.4426 3.10295 88.7865 3.65452 88.7865 4.09895C88.7865 4.54338 88.5177 5.1624 87.9842 5.94412C87.2253 7.06313 86.4467 7.62263 85.6444 7.62263C85.1781 7.62263 84.5971 7.40042 83.9055 6.95202C83.8383 6.90837 83.7118 6.79726 83.5221 6.61473C83.3324 6.43616 83.1585 6.28935 83.0044 6.17824C82.534 5.88857 81.9412 5.74174 81.214 5.74174C80.4868 5.74174 79.89 5.91634 79.4078 6.26157C78.9296 6.61076 78.6885 7.0909 78.6885 7.70596C78.6885 8.32102 78.9731 8.81703 79.5422 9.19797C80.1113 9.57891 80.8188 9.83684 81.6646 9.97175C82.5103 10.1067 83.4352 10.313 84.439 10.5908C85.4429 10.8725 86.3637 11.2098 87.2135 11.6146C88.0592 12.0153 88.7667 12.7177 89.3358 13.7097C89.9049 14.7057 90.1895 15.9319 90.1895 17.3842C90.1895 18.8365 89.901 20.1182 89.32 21.2253C88.739 22.3324 87.9842 23.1895 87.0475 23.7927C85.2413 24.9792 83.3166 25.5704 81.2654 25.5704C80.218 25.5704 79.226 25.4395 78.2894 25.1855C77.3527 24.9276 76.5939 24.6101 76.0168 24.2292C74.8351 23.5149 74.0131 22.8205 73.5428 22.1499L73.2424 21.7809L73.2503 21.7848Z" fill="#FFC53E"/>
<path id="Vector_5" d="M92.296 0.61499H110.875C111.587 0.61499 112.112 0.698321 112.444 0.864982C112.78 1.03164 113.002 1.2975 113.112 1.65463C113.223 2.01177 113.278 2.48397 113.278 3.06331C113.278 3.64266 113.223 4.1109 113.112 4.45612C113.002 4.80532 112.812 5.0434 112.543 5.17832C112.14 5.38069 111.575 5.47989 110.84 5.47989H104.457V22.3563C104.457 22.8721 104.441 23.2491 104.406 23.4991C104.37 23.7451 104.271 24.0308 104.105 24.3562C103.939 24.6816 103.643 24.9078 103.22 25.0427C102.797 25.1776 102.24 25.2451 101.548 25.2451C100.856 25.2451 100.307 25.1776 99.8922 25.0427C99.4811 24.9078 99.1887 24.6776 99.0227 24.3562C98.8567 24.0308 98.7539 23.7411 98.7223 23.4832C98.6867 23.2253 98.6709 22.8404 98.6709 22.3245V5.47989H92.2525C91.5411 5.47989 91.0155 5.39656 90.6835 5.2299C90.3476 5.06324 90.1262 4.80135 90.0156 4.44025C89.9049 4.08312 89.8496 3.61488 89.8496 3.03157C89.8496 2.44826 89.9049 1.98796 90.0156 1.63876C90.1262 1.29354 90.3159 1.05148 90.5847 0.916566C90.9839 0.714192 91.553 0.61499 92.2881 0.61499H92.296Z" fill="#FFC53E"/>
<path id="Vector_6" d="M124.246 2.39264L133.269 21.1142C133.648 21.8761 133.838 22.4435 133.838 22.8244C133.838 23.63 133.194 24.3561 131.901 25.0069C131.142 25.3878 130.549 25.5783 130.115 25.5783C129.68 25.5783 129.324 25.4791 129.044 25.2767C128.763 25.0744 128.565 24.8641 128.443 24.6379C128.32 24.4157 128.147 24.0784 127.925 23.63L126.186 20.0071H116.93L115.191 23.63C114.97 24.0784 114.796 24.4038 114.673 24.6022C114.551 24.8045 114.349 25.0109 114.073 25.2212C113.792 25.4355 113.436 25.5386 113.002 25.5386C112.567 25.5386 111.97 25.3482 111.215 24.9672C109.923 24.3403 109.279 23.626 109.279 22.8205C109.279 22.4395 109.468 21.8681 109.848 21.1102L118.871 2.35296C119.116 1.8371 119.487 1.42442 119.989 1.11094C120.491 0.797457 121.021 0.6427 121.578 0.6427C122.783 0.6427 123.673 1.22601 124.254 2.38867L124.246 2.39264ZM121.538 10.4439L119.333 15.043H123.779L121.538 10.4439Z" fill="#FFC53E"/>
<path id="Vector_7" d="M131.032 0.61499H149.611C150.322 0.61499 150.848 0.698321 151.18 0.864982C151.516 1.03164 151.737 1.2975 151.848 1.65463C151.959 2.01177 152.014 2.48397 152.014 3.06331C152.014 3.64266 151.959 4.1109 151.848 4.45612C151.737 4.80532 151.548 5.0434 151.279 5.17832C150.876 5.38069 150.311 5.47989 149.575 5.47989H143.193V22.3563C143.193 22.8721 143.177 23.2491 143.141 23.4991C143.106 23.7451 143.007 24.0308 142.841 24.3562C142.675 24.6816 142.379 24.9078 141.956 25.0427C141.533 25.1776 140.975 25.2451 140.284 25.2451C139.592 25.2451 139.043 25.1776 138.628 25.0427C138.217 24.9078 137.924 24.6776 137.758 24.3562C137.592 24.0308 137.49 23.7411 137.458 23.4832C137.422 23.2253 137.407 22.8404 137.407 22.3245V5.47989H130.988C130.277 5.47989 129.751 5.39656 129.419 5.2299C129.083 5.06324 128.862 4.80135 128.751 4.44025C128.641 4.08312 128.585 3.61488 128.585 3.03157C128.585 2.44826 128.641 1.98796 128.751 1.63876C128.862 1.29354 129.052 1.05148 129.32 0.916566C129.72 0.714192 130.289 0.61499 131.024 0.61499H131.032Z" fill="#FFC53E"/>
<path id="Vector_8" d="M153.856 3.599C153.856 3.08315 153.872 2.69824 153.907 2.44032C153.939 2.18239 154.045 1.88875 154.223 1.55146C154.535 0.948306 155.405 0.646729 156.832 0.646729C158.393 0.646729 159.318 1.05941 159.606 1.88875C159.717 2.26969 159.772 2.84903 159.772 3.63472V22.2928C159.772 22.8285 159.756 23.2213 159.721 23.4673C159.689 23.7134 159.582 24.003 159.405 24.3403C159.092 24.9435 158.223 25.2451 156.796 25.2451C155.235 25.2451 154.322 24.8205 154.057 23.9713C153.923 23.6142 153.856 23.0428 153.856 22.261V3.599Z" fill="#FFC53E"/>
<path id="Vector_9" d="M173.941 0.345093C177.237 0.345093 180.102 1.54346 182.529 3.93623C184.956 6.329 186.173 9.30112 186.173 12.8446C186.173 16.3882 185.015 19.4119 182.699 21.9038C180.383 24.3998 177.529 25.6458 174.142 25.6458C170.755 25.6458 167.874 24.4157 165.503 21.9554C163.132 19.4952 161.946 16.5667 161.946 13.1621C161.946 11.305 162.282 9.56698 162.95 7.94403C163.618 6.32107 164.511 4.96397 165.625 3.86878C166.74 2.77358 168.02 1.9125 169.467 1.28553C170.913 0.658573 172.407 0.345093 173.945 0.345093H173.941ZM167.858 12.9954C167.858 14.9874 168.499 16.6024 169.779 17.8445C171.06 19.0865 172.49 19.7055 174.075 19.7055C175.66 19.7055 177.083 19.1024 178.352 17.8921C179.62 16.6858 180.256 15.0628 180.256 13.0272C180.256 10.9915 179.616 9.36064 178.336 8.12656C177.055 6.89644 175.625 6.28139 174.04 6.28139C172.455 6.28139 171.032 6.90041 169.763 8.14243C168.495 9.38445 167.858 10.9995 167.858 12.9915V12.9954Z" fill="#FFC53E"/>
<path id="Vector_10" d="M204.167 1.67049C204.381 1.28162 204.697 1.01576 205.12 0.88084C205.543 0.745924 206.072 0.678467 206.709 0.678467C207.345 0.678467 207.855 0.73402 208.246 0.845127C208.637 0.956234 208.926 1.09115 209.116 1.24591C209.305 1.40066 209.444 1.63875 209.535 1.95223C209.669 2.30936 209.736 2.88077 209.736 3.66249V22.2848C209.736 22.8205 209.72 23.2134 209.685 23.4594C209.649 23.7054 209.546 23.9951 209.369 24.3324C209.056 24.9355 208.187 25.2371 206.76 25.2371C205.891 25.2371 205.29 25.1697 204.958 25.0347C204.622 24.8998 204.345 24.6895 204.12 24.3959C199.109 17.6858 195.808 13.301 194.228 11.2416V22.2809C194.228 22.8166 194.212 23.2094 194.176 23.4554C194.145 23.7014 194.038 23.9911 193.86 24.3284C193.548 24.9316 192.678 25.2331 191.252 25.2331C189.825 25.2331 189.023 24.9316 188.71 24.3284C188.532 23.9951 188.426 23.6895 188.394 23.4237C188.363 23.1539 188.347 22.765 188.347 22.2491V3.53154C188.347 2.68236 188.453 2.05937 188.663 1.67049C188.876 1.28162 189.192 1.01576 189.615 0.88084C190.038 0.745924 190.584 0.678467 191.252 0.678467C191.92 0.678467 192.449 0.741956 192.84 0.861C193.228 0.984011 193.504 1.1229 193.658 1.28162C193.745 1.34908 194.002 1.63875 194.429 2.1546C199.128 8.57501 202.27 12.813 203.855 14.8724V3.53154C203.855 2.68236 203.962 2.05937 204.171 1.67049H204.167Z" fill="#FFC53E"/>
</g>
</g>
</svg>
