<svg width="57" height="56" viewBox="0 0 57 56" fill="none" xmlns="http://www.w3.org/2000/svg">
<g id="Group">
<path id="Vector" d="M24.5255 29.7216H9.54662C8.90636 29.7216 8.31353 29.3763 7.98945 28.8208L0.503952 15.7975C0.183823 15.238 0.183823 14.5515 0.503952 13.9959L7.9934 0.968632C8.31353 0.409129 8.90636 0.0678711 9.55057 0.0678711H24.5255C25.1658 0.0678711 25.7586 0.413097 26.0827 0.968632L33.5721 13.992C33.8923 14.5515 33.8923 15.238 33.5721 15.7935L26.0827 28.8168C25.7626 29.3763 25.1697 29.7176 24.5255 29.7176V29.7216ZM10.5861 26.1146H23.49L29.9401 14.8967L23.49 3.67488H10.5861L4.13209 14.8927L10.5821 26.1106L10.5861 26.1146Z" fill="#FFC53E"/>
<path id="Vector_2" d="M46.9939 42.7449H32.015C31.3747 42.7449 30.7819 42.3997 30.4578 41.8441L22.9683 28.8208C22.6482 28.2613 22.6482 27.5748 22.9683 27.0153L30.4578 13.9919C30.7779 13.4324 31.3707 13.0912 32.015 13.0912H46.9939C47.6341 13.0912 48.227 13.4364 48.551 13.9919L56.0405 27.0153C56.3606 27.5748 56.3606 28.2613 56.0405 28.8208L48.551 41.8441C48.2309 42.4036 47.6381 42.7449 46.9939 42.7449ZM33.0544 39.1379H45.9584L52.4084 27.92L45.9584 16.7022H33.0544L26.6004 27.92L33.0504 39.1379H33.0544Z" fill="#FFC53E"/>
<path id="Vector_3" d="M24.5255 55.7683H9.54662C8.90636 55.7683 8.31353 55.423 7.98945 54.8675L0.503952 41.8442C0.183823 41.2847 0.183823 40.5982 0.503952 40.0426L7.9934 27.0193C8.31353 26.4598 8.90636 26.1185 9.55057 26.1185H24.5255C25.1658 26.1185 25.7586 26.4638 26.0827 27.0193L33.5721 40.0426C33.8923 40.6021 33.8923 41.2886 33.5721 41.8442L26.0827 54.8675C25.7626 55.427 25.1697 55.7683 24.5255 55.7683ZM10.5861 52.1612H23.49L29.9401 40.9434L23.49 29.7255H10.5861L4.13604 40.9434L10.5861 52.1612Z" fill="#FFC53E"/>
</g>
</svg>
