<svg width="24" height="24" viewBox="0 0 24 24" fill="none" xmlns="http://www.w3.org/2000/svg">
    <path fill-rule="evenodd" clip-rule="evenodd" d="M2.44044 10.3744L5.74755 4.69019C6.35499 3.64612 7.49767 3 8.73669 3H15.2633C16.5023 3 17.645 3.64612 18.2525 4.69019L21.5596 10.3744C22.1468 11.3838 22.1468 12.6162 21.5596 13.6256L18.2525 19.3098C17.645 20.3539 16.5023 21 15.2633 21H8.73669C7.49767 21 6.35499 20.3539 5.74755 19.3098L2.44044 13.6256C1.85319 12.6162 1.85319 11.3838 2.44044 10.3744Z" stroke="white" stroke-width="2" stroke-linecap="round" stroke-linejoin="round"/>
    <path d="M12 9C10.3431 9 9 10.3431 9 12C9 13.6569 10.3431 15 12 15C13.6569 15 15 13.6569 15 12C15 10.3431 13.6569 9 12 9Z" stroke="white" stroke-width="2" stroke-linecap="round" stroke-linejoin="round"/>
</svg>
