<svg width="231" height="47" viewBox="0 0 231 47" fill="none" xmlns="http://www.w3.org/2000/svg">
    <path d="M71.2805 22.7172C72.3711 24.0152 72.9147 25.4677 72.9147 27.0811C72.8787 28.9345 72.2466 30.4855 71.0184 31.7342C69.7903 32.983 68.3001 33.6106 66.5447 33.6106H59.2609C57.9672 33.6106 57.2107 33.259 56.9912 32.5558C56.8799 32.2403 56.8242 31.7605 56.8242 31.1099V15.6883C56.8242 15.2446 56.8373 14.9193 56.8668 14.7156C56.893 14.5118 56.9814 14.272 57.1288 13.9926C57.3875 13.4932 58.1081 13.2434 59.2904 13.2434H66.2696C67.9693 13.2434 69.3907 13.8349 70.5337 15.0212C71.7324 16.2272 72.335 17.6698 72.335 19.3555C72.335 20.578 71.9846 21.6985 71.2837 22.7172H71.2805ZM68.0119 26.8018C68.0119 26.3582 67.9595 26.0066 67.8613 25.747C67.7597 25.4874 67.5894 25.3034 67.3504 25.1916C66.9803 25.0438 66.4628 24.9682 65.798 24.9682C65.1331 24.9682 64.6353 24.84 64.3012 24.5804C63.9705 24.3208 63.8034 23.7885 63.8034 22.9834C63.8034 22.1783 63.9737 21.6459 64.3143 21.3863C64.655 21.1267 65.2248 20.9986 66.0174 20.9986C66.7543 20.9986 67.1997 20.8047 67.3471 20.4137C67.4028 20.2099 67.429 19.878 67.429 19.4147C67.429 18.9514 67.275 18.6293 66.9704 18.442C66.6659 18.258 66.2073 18.1627 65.5982 18.1627H61.7205V28.6946H66.263C67.4257 28.6946 68.0086 28.0637 68.0086 26.8051L68.0119 26.8018Z" fill="#FFC53E"/>
    <path d="M79.619 28.7177H88.1473C88.5731 28.7177 88.8907 28.7308 89.1036 28.7604C89.3165 28.79 89.5621 28.8754 89.8372 29.0233C90.3351 29.2829 90.584 30.0058 90.584 31.1921C90.584 32.4901 90.2434 33.2492 89.5589 33.4694C89.2445 33.5811 88.7663 33.637 88.1178 33.637H77.1496C75.8559 33.637 75.0993 33.2854 74.8799 32.5821C74.7686 32.2864 74.7129 31.8132 74.7129 31.1658V15.7146C74.7129 14.7682 74.8865 14.1274 75.2402 13.7824C75.5906 13.4407 76.2555 13.2698 77.2347 13.2698H88.1473C88.5731 13.2698 88.8907 13.2829 89.1036 13.3125C89.3165 13.3388 89.5621 13.4275 89.8372 13.5754C90.3351 13.835 90.584 14.5579 90.584 15.7442C90.584 17.0422 90.2434 17.8013 89.5589 18.0215C89.2445 18.1332 88.7663 18.1891 88.1178 18.1891H79.6157V20.9954H85.0982C85.524 20.9954 85.8416 21.0085 86.0545 21.0381C86.2674 21.0644 86.513 21.1531 86.7881 21.301C87.286 21.5606 87.5349 22.2835 87.5349 23.4698C87.5349 24.7678 87.1844 25.5269 86.4836 25.7471C86.1691 25.8588 85.691 25.9147 85.0425 25.9147H79.6157V28.721L79.619 28.7177Z" fill="#FFC53E"/>
    <path d="M97.285 28.7177H105.813C106.239 28.7177 106.557 28.7308 106.77 28.7604C106.983 28.79 107.228 28.8754 107.503 29.0233C108.001 29.2829 108.25 30.0058 108.25 31.1921C108.25 32.4901 107.909 33.2492 107.225 33.4694C106.91 33.5811 106.432 33.637 105.784 33.637H94.8156C93.5219 33.637 92.7654 33.2854 92.5459 32.5821C92.4346 32.2864 92.3789 31.8132 92.3789 31.1658V15.7146C92.3789 14.7682 92.5525 14.1274 92.9062 13.7824C93.2566 13.4407 93.9215 13.2698 94.9007 13.2698H105.813C106.239 13.2698 106.557 13.2829 106.77 13.3125C106.983 13.3388 107.228 13.4275 107.503 13.5754C108.001 13.835 108.25 14.5579 108.25 15.7442C108.25 17.0422 107.909 17.8013 107.225 18.0215C106.91 18.1332 106.432 18.1891 105.784 18.1891H97.2817V20.9954H102.764C103.19 20.9954 103.508 21.0085 103.721 21.0381C103.933 21.0644 104.179 21.1531 104.454 21.301C104.952 21.5606 105.201 22.2835 105.201 23.4698C105.201 24.7678 104.85 25.5269 104.15 25.7471C103.835 25.8588 103.357 25.9147 102.709 25.9147H97.2817V28.721L97.285 28.7177Z" fill="#FFC53E"/>
    <path d="M117.364 30.7748C116.883 30.1833 116.644 29.6509 116.644 29.1777C116.644 28.7045 117.04 28.0802 117.836 27.3014C118.297 26.8577 118.785 26.6343 119.303 26.6343C119.82 26.6343 120.541 27.0976 121.464 28.0243C121.723 28.3398 122.093 28.6388 122.571 28.928C123.05 29.2139 123.495 29.3585 123.901 29.3585C125.617 29.3585 126.475 28.6552 126.475 27.2455C126.475 26.8183 126.24 26.4634 125.768 26.1742C125.296 25.8883 124.71 25.678 124.009 25.5499C123.308 25.4217 122.552 25.2114 121.74 24.9255C120.927 24.6396 120.171 24.3012 119.47 23.9101C118.769 23.5224 118.183 22.9046 117.711 22.0633C117.24 21.2221 117.004 20.2067 117.004 19.0204C117.004 17.3905 117.61 15.9676 118.818 14.7551C120.027 13.5425 121.674 12.9346 123.76 12.9346C124.867 12.9346 125.879 13.0792 126.793 13.365C127.707 13.6542 128.339 13.9434 128.689 14.2391L129.38 14.7682C129.954 15.3038 130.238 15.7606 130.238 16.1287C130.238 16.4967 130.016 17.0093 129.574 17.6567C128.945 18.5834 128.3 19.0467 127.635 19.0467C127.248 19.0467 126.767 18.8627 126.194 18.4914C126.138 18.4552 126.033 18.3632 125.876 18.212C125.719 18.0642 125.575 17.9426 125.447 17.8506C125.057 17.6107 124.566 17.4891 123.963 17.4891C123.361 17.4891 122.866 17.6337 122.467 17.9196C122.07 18.2087 121.871 18.6064 121.871 19.1157C121.871 19.6251 122.106 20.0358 122.578 20.3513C123.05 20.6667 123.636 20.8803 124.337 20.9921C125.038 21.1038 125.804 21.2747 126.636 21.5047C127.468 21.738 128.231 22.0173 128.935 22.3525C129.636 22.6844 130.222 23.266 130.694 24.0876C131.165 24.9124 131.401 25.9278 131.401 27.1305C131.401 28.3332 131.162 29.3946 130.681 30.3114C130.199 31.2283 129.574 31.938 128.797 32.4375C127.301 33.4201 125.706 33.9097 124.006 33.9097C123.138 33.9097 122.316 33.8013 121.54 33.591C120.764 33.3774 120.135 33.1145 119.657 32.799C118.677 32.2075 117.996 31.6324 117.606 31.0771L117.358 30.7715L117.364 30.7748Z" fill="#FFC53E"/>
    <path d="M133.146 13.2434H148.543C149.132 13.2434 149.568 13.3124 149.843 13.4504C150.121 13.5884 150.305 13.8086 150.396 14.1044C150.488 14.4001 150.534 14.7912 150.534 15.2709C150.534 15.7507 150.488 16.1385 150.396 16.4243C150.305 16.7135 150.147 16.9107 149.925 17.0224C149.591 17.19 149.122 17.2722 148.513 17.2722H143.224V31.2479C143.224 31.6751 143.211 31.9873 143.181 32.1943C143.152 32.398 143.07 32.6346 142.932 32.9041C142.795 33.1736 142.549 33.3609 142.199 33.4726C141.848 33.5843 141.387 33.6402 140.813 33.6402C140.24 33.6402 139.785 33.5843 139.441 33.4726C139.101 33.3609 138.858 33.1703 138.721 32.9041C138.583 32.6346 138.498 32.3948 138.472 32.1812C138.442 31.9676 138.429 31.6488 138.429 31.2216V17.2722H133.11C132.521 17.2722 132.085 17.2031 131.81 17.0651C131.532 16.9271 131.348 16.7102 131.257 16.4112C131.165 16.1155 131.119 15.7277 131.119 15.2446C131.119 14.7616 131.165 14.3804 131.257 14.0912C131.348 13.8053 131.506 13.6049 131.728 13.4932C132.059 13.3256 132.531 13.2434 133.14 13.2434H133.146Z" fill="#FFC53E"/>
    <path d="M159.622 14.7155L167.1 30.2193C167.414 30.8502 167.571 31.3201 167.571 31.6356C167.571 32.3027 167.037 32.904 165.966 33.443C165.338 33.7584 164.846 33.9162 164.486 33.9162C164.126 33.9162 163.831 33.834 163.598 33.6664C163.366 33.4988 163.202 33.3247 163.101 33.1374C162.999 32.9533 162.855 32.674 162.672 32.3027L161.231 29.3025H153.56L152.119 32.3027C151.936 32.674 151.792 32.9435 151.69 33.1078C151.589 33.2754 151.422 33.4463 151.192 33.6204C150.96 33.7979 150.665 33.8833 150.305 33.8833C149.945 33.8833 149.45 33.7256 148.825 33.4101C147.754 32.8909 147.22 32.2994 147.22 31.6323C147.22 31.3169 147.377 30.8437 147.691 30.216L155.168 14.6827C155.371 14.2555 155.679 13.9137 156.095 13.6541C156.511 13.3945 156.95 13.2664 157.412 13.2664C158.411 13.2664 159.148 13.7494 159.629 14.7122L159.622 14.7155ZM157.379 21.383L155.552 25.1916H159.236L157.379 21.383Z" fill="#FFC53E"/>
    <path d="M165.246 13.2434H180.642C181.232 13.2434 181.667 13.3124 181.942 13.4504C182.221 13.5884 182.404 13.8086 182.496 14.1044C182.588 14.4001 182.633 14.7912 182.633 15.2709C182.633 15.7507 182.588 16.1385 182.496 16.4243C182.404 16.7135 182.247 16.9107 182.024 17.0224C181.69 17.19 181.222 17.2722 180.613 17.2722H175.323V31.2479C175.323 31.6751 175.31 31.9873 175.281 32.1943C175.251 32.398 175.17 32.6346 175.032 32.9041C174.894 33.1736 174.649 33.3609 174.298 33.4726C173.948 33.5843 173.486 33.6402 172.913 33.6402C172.34 33.6402 171.885 33.5843 171.541 33.4726C171.2 33.3609 170.958 33.1703 170.82 32.9041C170.683 32.6346 170.598 32.3948 170.571 32.1812C170.542 31.9676 170.529 31.6488 170.529 31.2216V17.2722H165.21C164.62 17.2722 164.185 17.2031 163.91 17.0651C163.631 16.9271 163.448 16.7102 163.356 16.4112C163.265 16.1155 163.219 15.7277 163.219 15.2446C163.219 14.7616 163.265 14.3804 163.356 14.0912C163.448 13.8053 163.605 13.6049 163.828 13.4932C164.159 13.3256 164.63 13.2434 165.239 13.2434H165.246Z" fill="#FFC53E"/>
    <path d="M184.159 15.7146C184.159 15.2874 184.172 14.9687 184.202 14.7551C184.228 14.5415 184.316 14.2983 184.464 14.019C184.722 13.5195 185.443 13.2698 186.625 13.2698C187.919 13.2698 188.685 13.6115 188.924 14.2983C189.016 14.6138 189.062 15.0936 189.062 15.7442V31.1954C189.062 31.639 189.049 31.9644 189.019 32.1681C188.993 32.3718 188.905 32.6117 188.757 32.891C188.499 33.3905 187.778 33.6403 186.596 33.6403C185.302 33.6403 184.546 33.2886 184.326 32.5854C184.215 32.2897 184.159 31.8165 184.159 31.1691V15.7146Z" fill="#FFC53E"/>
    <path d="M200.803 13.02C203.535 13.02 205.909 14.0124 207.92 15.9939C209.931 17.9754 210.94 20.4367 210.94 23.3712C210.94 26.3057 209.98 28.8097 208.061 30.8734C206.142 32.9403 203.777 33.9721 200.97 33.9721C198.163 33.9721 195.776 32.9535 193.811 30.9161C191.846 28.8787 190.863 26.4536 190.863 23.6341C190.863 22.0962 191.142 20.6569 191.695 19.3129C192.249 17.9689 192.989 16.845 193.912 15.9381C194.836 15.0311 195.897 14.318 197.096 13.7988C198.294 13.2796 199.532 13.02 200.806 13.02H200.803ZM195.763 23.4961C195.763 25.1457 196.293 26.4831 197.354 27.5117C198.416 28.5402 199.601 29.0529 200.915 29.0529C202.228 29.0529 203.407 28.5534 204.458 27.5511C205.509 26.5521 206.037 25.2081 206.037 23.5224C206.037 21.8366 205.506 20.486 204.445 19.464C203.384 18.4454 202.198 17.936 200.885 17.936C199.572 17.936 198.393 18.4486 197.341 19.4772C196.29 20.5057 195.763 21.8432 195.763 23.4928V23.4961Z" fill="#FFC53E"/>
    <path d="M225.851 14.1177C226.028 13.7956 226.29 13.5755 226.641 13.4637C226.991 13.352 227.43 13.2961 227.957 13.2961C228.485 13.2961 228.907 13.3421 229.231 13.4342C229.556 13.5262 229.795 13.6379 229.952 13.7661C230.109 13.8942 230.224 14.0914 230.299 14.351C230.41 14.6467 230.466 15.1199 230.466 15.7673V31.1889C230.466 31.6325 230.453 31.9579 230.423 32.1616C230.394 32.3653 230.309 32.6052 230.161 32.8845C229.903 33.384 229.182 33.6338 228 33.6338C227.279 33.6338 226.782 33.5779 226.506 33.4662C226.228 33.3545 225.999 33.1803 225.812 32.9371C221.659 27.3803 218.925 23.7492 217.615 22.0437V31.1856C217.615 31.6293 217.601 31.9546 217.572 32.1583C217.546 32.3621 217.457 32.6019 217.31 32.8813C217.051 33.3807 216.331 33.6305 215.148 33.6305C213.966 33.6305 213.301 33.3807 213.043 32.8813C212.895 32.6052 212.807 32.3522 212.781 32.132C212.754 31.9086 212.741 31.5865 212.741 31.1593V15.6588C212.741 14.9556 212.83 14.4397 213.003 14.1177C213.18 13.7956 213.442 13.5755 213.793 13.4637C214.143 13.352 214.595 13.2961 215.148 13.2961C215.702 13.2961 216.141 13.3487 216.465 13.4473C216.786 13.5492 217.015 13.6642 217.143 13.7956C217.215 13.8515 217.428 14.0914 217.782 14.5186C221.676 19.8355 224.279 23.345 225.593 25.0505V15.6588C225.593 14.9556 225.681 14.4397 225.855 14.1177H225.851Z" fill="#FFC53E"/>
    <path d="M20.6382 24.9256H8.22557C7.695 24.9256 7.20374 24.6397 6.93518 24.1797L0.732165 13.3947C0.466883 12.9314 0.466883 12.3629 0.732165 11.9028L6.93846 1.1146C7.20374 0.651256 7.695 0.368652 8.22884 0.368652H20.6382C21.1687 0.368652 21.66 0.654542 21.9285 1.1146L28.1348 11.8996C28.4001 12.3629 28.4001 12.9314 28.1348 13.3914L21.9285 24.1764C21.6633 24.6397 21.172 24.9223 20.6382 24.9223V24.9256ZM9.08691 21.9386H19.7801L25.125 12.6488L19.7801 3.35571H9.08691L3.7387 12.6455L9.08364 21.9353L9.08691 21.9386Z" fill="#FFC53E"/>
    <path d="M39.2567 35.7105H26.8441C26.3135 35.7105 25.8222 35.4246 25.5537 34.9646L19.3474 24.1796C19.0821 23.7163 19.0821 23.1478 19.3474 22.6845L25.5537 11.8995C25.819 11.4362 26.3102 11.1536 26.8441 11.1536H39.2567C39.7872 11.1536 40.2785 11.4395 40.547 11.8995L46.7533 22.6845C47.0186 23.1478 47.0186 23.7163 46.7533 24.1796L40.547 34.9646C40.2818 35.4279 39.7905 35.7105 39.2567 35.7105ZM27.7054 32.7235H38.3986L43.7435 23.4337L38.3986 14.1439H27.7054L22.3572 23.4337L27.7021 32.7235H27.7054Z" fill="#FFC53E"/>
    <path d="M20.6382 46.4956H8.22557C7.695 46.4956 7.20374 46.2097 6.93518 45.7496L0.732165 34.9647C0.466883 34.5013 0.466883 33.9328 0.732165 33.4728L6.93846 22.6878C7.20374 22.2245 7.695 21.9419 8.22884 21.9419H20.6382C21.1687 21.9419 21.66 22.2278 21.9285 22.6878L28.1348 33.4728C28.4001 33.9361 28.4001 34.5046 28.1348 34.9647L21.9285 45.7496C21.6633 46.213 21.172 46.4956 20.6382 46.4956ZM9.08691 43.5085H19.7801L25.125 34.2187L19.7801 24.929H9.08691L3.74197 34.2187L9.08691 43.5085Z" fill="#FFC53E"/>
</svg>
